.
..............................Site Info...........................

 -   http://www.scenetime.com  *_*   

SceneTime is going to Close sign up on march/1, hurry up! get in before the doors are closed.

     We care to share . Join us on  http://www.scenetime.com 

    Be the first to get new release at  http://www.scenetime.com

        Seed back for speed


...................................NFO:.................................................Haywire 2012 CAM XviD - MiSTERE 
http://www.imdb.com/title/tt1506999/

Video
ID                               : 0
Format                           : MPEG-4 Visual
Format profile                   : Advanced Simple@L5
Format settings, BVOP            : 2
Format settings, QPel            : No
Format settings, GMC             : No warppoints
Format settings, Matrix          : Default (H.263)
Muxing mode                      : Packed bitstream
Codec ID                         : XVID
Codec ID/Hint                    : XviD
Duration                         : 1h 26mn
Bit rate                         : 2 021 Kbps
Width                            : 720 pixels
Height                           : 288 pixels
Display aspect ratio             : 2.500
Frame rate                       : 25.000 fps
Color space                      : YUV
Chroma subsampling               : 4:2:0
Bit depth                        : 8 bits
Scan type                        : Progressive
Compression mode                 : Lossy
Bits/(Pixel*Frame)               : 0.390
Stream size                      : 1.22 GiB (94%)
Writing library                  : XviD 64

Audio
ID                               : 1
Format                           : MPEG Audio
Format version                   : Version 1
Format profile                   : Layer 3
Mode                             : Joint stereo
Mode extension                   : MS Stereo
Codec ID                         : 55
Codec ID/Hint                    : MP3
Duration                         : 1h 26mn
Bit rate mode                    : Constant
Bit rate                         : 128 Kbps
Channel(s)                       : 2 channels
Sampling rate                    : 44.1 KHz
Compression mode                 : Lossy
Stream size                      : 78.9 MiB (6%)
Alignment                        : Split accross interleaves
Interleave, duration             : 40 ms (1.00 video frame)

Sources -
	V: P76
	A: INSPiRAL

First off, video seems to be multiple sources, 
at least 2 cams and possibly trailer segments 
cut up and stitched together. About 30 seconds 
missing around 40 minutes or so. Cut video into
31 pieces, then cropped rotated and stretched each
seperatly to remove as much camera shifting as 
possible without losing picture. Then another 64 cuts
to make it all sync up properly.


[IMG]http://i.imgur.com/6QUbY.png[/IMG]
[IMG]http://i.imgur.com/S6F5h.png[/IMG]
[IMG]http://i.imgur.com/rAKbj.png[/IMG]
[IMG]http://i.imgur.com/EVk3t.png[/IMG]
[IMG]http://i.imgur.com/w1Del.png[/IMG]
[IMG]http://i.imgur.com/DS4Bp.png[/IMG]